<?xml version="1.0" encoding="UTF-8"?>
<svg version="1.1" viewBox="0 0 2048 904" width="1280" height="1280" xmlns="http://www.w3.org/2000/svg">
<path transform="translate(1625,296)" d="m0 0h121l1 1v121l-1 1h-117v120h-121l-1-1v-121l1-1h117z" fill="#7CC8A8"/>
<path transform="translate(1474,666)" d="m0 0h122v122l-117 1-1 115h-122v-122l1-1h117z" fill="#007082"/>
<path transform="translate(1211,464)" d="m0 0h122v117h91v95h-94l-1-1v-87l-117-1-1-1z" fill="#7CC8A8"/>
<path transform="translate(402,207)" d="m0 0 17 1 15 5 11 6 1-4 4-5 7-3 9 1 7 6 2 4v128l-4 16-8 14-9 10-9 8-15 8-12 3-7 1h-12l-15-3-11-5-5-4-2-4v-10l3-6 5-4 2-1h10l12 4h14l11-4 8-6h2l2-4 5-8 3-7-14 7-12 3-15 1-14-2-13-5-11-7-11-10-8-11-6-12-4-16v-22l4-16 8-15 8-10 7-7 14-9 16-5zm-5 32-10 4-10 9-6 8-4 11-1 12 2 12 4 9 7 9 10 7 9 3h14l11-4 8-6 8-9 4-11 1-4v-15l-3-11-6-10-8-8-10-5-3-1z" fill="#007082"/>
<path transform="translate(1926)" d="m0 0h122v123h-122z" fill="#007082"/>
<path transform="translate(1474)" d="m0 0h122v122l-1 1h-120l-1-1z" fill="#007082"/>
<path transform="translate(1776,296)" d="m0 0h121l1 5-1 118h-121l-1-6v-116z" fill="#007082"/>
<path transform="translate(1926,296)" d="m0 0h122v123h-122z" fill="#7CC8A8"/>
<path transform="translate(1926,444)" d="m0 0h121l1 1v122h-122z" fill="#007082"/>
<path transform="translate(1625)" d="m0 0h122v122l-1 1h-121z" fill="#7CC8A8"/>
<path transform="translate(1776)" d="m0 0h121v123h-121l-1-1v-116z" fill="#7DC8A9"/>
<path transform="translate(1775,148)" d="m0 0h122l1 3-1 120h-121l-1-3z" fill="#7DC8A8"/>
<path transform="translate(1625,148)" d="m0 0h122v122l-1 1h-121z" fill="#007082"/>
<path transform="translate(1926,148)" d="m0 0h122v123h-122z" fill="#7CC8A8"/>
<path transform="translate(1672,575)" d="m0 0h121l1 2v120l-1 1h-121z" fill="#7CC8A8"/>
<path transform="translate(1423,207)" d="m0 0 15 1 13 4 13 7 6-8 4-3 8-1 7 3 5 6 2 6v115l-1 7-6 7-4 2h-10l-5-3-4-5-2-3-16 8-12 3h-22l-12-3-14-7-12-11-7-8-7-12-4-12-2-12v-15l3-16 5-12 9-13 11-11 13-8 11-4zm-6 32-10 4-8 7-6 7-5 13-1 13 2 12 6 12 6 7 10 6 7 2h15l10-3 8-6 8-9 4-9 2-15-2-13-4-9-6-8-8-7-10-4z" fill="#017082"/>
<path transform="translate(1024,207)" d="m0 0 18 1 16 5 10 6 11 9 8 10 8 16 3 13 1 10-3 9-6 4-4 1h-96l5 12 6 8 9 7 12 4 12 1 13-2 12-6 5-3 8-1 6 2 5 5 1 2v9l-4 6-11 8-12 6-17 4h-23l-15-4-12-6-11-9-9-10-8-14-4-13-2-18 2-16 5-14 7-12 9-10 9-8 16-8 11-3zm0 28-12 3-10 6-7 7-6 11v4h82l-2-7-9-11-10-7-13-5z" fill="#007082"/>
<path transform="translate(222,207)" d="m0 0 16 1 13 4 8 4 9 7 10 10 9 14 5 12 3 17v9l-2 15-6 16-7 10-9 10-8 7-10 6-13 4-5 1h-20l-15-4-13-7-11-9-9-11-6-10-5-15-1-6v-23l4-15 8-15 9-11 9-8 14-8 14-4zm-3 32-12 4-10 7-6 9-4 11v21l4 12 6 9 8 6 11 4 11 1 11-2 11-6 8-9 4-8 3-14-1-14-5-13-9-10-14-7-5-1z" fill="#007082"/>
<path transform="translate(800,207)" d="m0 0 9 1 6 4 2 3 15-6 14-2 15 1 12 4 12 7 12 12 7 11 4 12 1 5v83l-4 7-6 4h-10l-6-4-4-6-1-4-1-78-4-9-5-6-12-6h-16l-10 5-6 7-4 10-1 78-4 8-5 4-2 1h-11l-6-4-4-7v-123l4-7 6-4z" fill="#007082"/>
<path transform="translate(1188,207)" d="m0 0 15 1 15 5 15 8 7 6 3 7-1 9-6 7-6 2-9-1-16-9-10-3h-8l-9 3-6 4-2 5 5 5 10 4 25 6 15 6 10 7 5 5 4 5 4 9 1 6v8l-3 12-7 11-11 9-13 6-12 3h-21l-16-4-16-8-11-8-4-7v-10l4-6 6-4h10l11 7 14 7 4 1h16l11-4 5-6v-6l-8-6-17-5-17-4-13-5-11-8-7-8-4-10-1-12 3-12 6-9 8-8 16-8 8-2z" fill="#007082"/>
<path transform="translate(11,149)" d="m0 0h10l6 4 4 4 1 3v161h83l6 3 6 7 1 3v7l-4 7-5 4-2 1-45 1-61-1-6-4-5-6v-183l4-6 5-4z" fill="#007082"/>
<path transform="translate(681,207)" d="m0 0 17 1 16 5 13 7 7 6 3 6v8l-4 7-7 4h-10l-13-8-9-3h-19l-11 4-8 6-7 7-5 10-2 8v12l3 10 6 10 9 8 11 5 15 2 12-2 12-6 7-4h8l6 3 5 6 1 3v7l-4 7-6 5-16 8-16 4h-23l-15-4-14-7-14-12-9-12-6-12-4-16v-19l4-16 6-12 10-13 12-10 10-6 14-5z" fill="#007082"/>
<path transform="translate(548,208)" d="m0 0h11l5 3 5 6 1 4v119l-3 7-6 5-2 1h-10l-5-3-5-6-1-3v-121l4-8z" fill="#007082"/>
<path transform="translate(1300,208)" d="m0 0h11l6 4 4 7v124l-4 6-6 4h-11l-6-4-3-4-1-3v-124l4-6z" fill="#007082"/>
<path transform="translate(549,149)" d="m0 0h10l6 4 4 6 1 3v11l-3 7-5 5-5 2h-7l-7-4-4-6-1-3v-13l3-6 6-5z" fill="#007082"/>
<path transform="translate(1301,149)" d="m0 0h9l7 4 4 7v16l-4 6-5 4-3 1h-7l-6-3-5-6-1-2v-16l5-8z" fill="#007082"/>
</svg>
